<svg width="235" height="61" viewBox="0 0 235 61" fill="none" xmlns="http://www.w3.org/2000/svg">
<path d="M0.72 59V2.04H16.72V59H0.72ZM13.76 59V45.4H40.4V59H13.76ZM72.7081 60.12C68.2281 60.12 64.0948 59.3733 60.3081 57.88C56.5748 56.3867 53.2948 54.3067 50.4681 51.64C47.6948 48.9733 45.5348 45.8267 43.9881 42.2C42.4415 38.5733 41.6681 34.6533 41.6681 30.44C41.6681 26.1733 42.4148 22.2533 43.9081 18.68C45.4548 15.1067 47.6148 11.9867 50.3881 9.32C53.1615 6.65333 56.4148 4.6 60.1481 3.16C63.9348 1.66667 68.0681 0.919999 72.5481 0.919999C77.0281 0.919999 81.1348 1.66667 84.8681 3.16C88.6548 4.6 91.9348 6.65333 94.7081 9.32C97.4815 11.9867 99.6148 15.1333 101.108 18.76C102.655 22.3333 103.428 26.2533 103.428 30.52C103.428 34.7333 102.655 38.6533 101.108 42.28C99.6148 45.8533 97.4815 49 94.7081 51.72C91.9348 54.3867 88.6815 56.4667 84.9481 57.96C81.2148 59.4 77.1348 60.12 72.7081 60.12ZM72.5481 46.04C75.5348 46.04 78.1215 45.4 80.3081 44.12C82.4948 42.84 84.1748 41.0267 85.3481 38.68C86.5215 36.3333 87.1081 33.5867 87.1081 30.44C87.1081 28.0933 86.7615 25.9867 86.0681 24.12C85.4281 22.2 84.4681 20.5733 83.1881 19.24C81.9081 17.8533 80.3615 16.8133 78.5481 16.12C76.7881 15.3733 74.7881 15 72.5481 15C69.5615 15 66.9748 15.64 64.7881 16.92C62.6015 18.1467 60.9215 19.9333 59.7481 22.28C58.5748 24.5733 57.9881 27.2933 57.9881 30.44C57.9881 32.84 58.3081 35 58.9481 36.92C59.6415 38.84 60.6281 40.4933 61.9081 41.88C63.1881 43.2133 64.7081 44.2533 66.4681 45C68.2815 45.6933 70.3081 46.04 72.5481 46.04ZM139.034 59.96C134.608 59.96 130.501 59.24 126.714 57.8C122.981 56.3067 119.701 54.2267 116.874 51.56C114.101 48.8933 111.941 45.7733 110.394 42.2C108.848 38.6267 108.074 34.7333 108.074 30.52C108.074 26.2533 108.874 22.3333 110.474 18.76C112.128 15.1867 114.394 12.0933 117.274 9.48C120.208 6.81333 123.594 4.76 127.434 3.32C131.274 1.82666 135.381 1.08 139.754 1.08C145.034 1.08 149.754 1.98666 153.914 3.8C158.128 5.61333 161.541 8.06666 164.154 11.16L153.354 21.96C151.381 19.6667 149.328 17.96 147.194 16.84C145.061 15.72 142.501 15.16 139.514 15.16C136.688 15.16 134.128 15.8 131.834 17.08C129.541 18.3067 127.701 20.0667 126.314 22.36C124.981 24.6533 124.314 27.3467 124.314 30.44C124.314 33.5333 124.928 36.2533 126.154 38.6C127.434 40.8933 129.194 42.68 131.434 43.96C133.674 45.24 136.288 45.88 139.274 45.88C142.154 45.88 144.581 45.32 146.554 44.2C148.528 43.08 150.021 41.48 151.034 39.4C152.101 37.32 152.634 34.8667 152.634 32.04L163.594 39L137.114 38.2V25.4H168.714V27.8C168.714 34.6267 167.461 40.44 164.954 45.24C162.501 50.04 159.034 53.6933 154.554 56.2C150.128 58.7067 144.954 59.96 139.034 59.96ZM203.802 60.12C199.322 60.12 195.189 59.3733 191.402 57.88C187.669 56.3867 184.389 54.3067 181.562 51.64C178.789 48.9733 176.629 45.8267 175.082 42.2C173.535 38.5733 172.762 34.6533 172.762 30.44C172.762 26.1733 173.509 22.2533 175.002 18.68C176.549 15.1067 178.709 11.9867 181.482 9.32C184.255 6.65333 187.509 4.6 191.242 3.16C195.029 1.66667 199.162 0.919999 203.642 0.919999C208.122 0.919999 212.229 1.66667 215.962 3.16C219.749 4.6 223.029 6.65333 225.802 9.32C228.575 11.9867 230.709 15.1333 232.202 18.76C233.749 22.3333 234.522 26.2533 234.522 30.52C234.522 34.7333 233.749 38.6533 232.202 42.28C230.709 45.8533 228.575 49 225.802 51.72C223.029 54.3867 219.775 56.4667 216.042 57.96C212.309 59.4 208.229 60.12 203.802 60.12ZM203.642 46.04C206.629 46.04 209.215 45.4 211.402 44.12C213.589 42.84 215.269 41.0267 216.442 38.68C217.615 36.3333 218.202 33.5867 218.202 30.44C218.202 28.0933 217.855 25.9867 217.162 24.12C216.522 22.2 215.562 20.5733 214.282 19.24C213.002 17.8533 211.455 16.8133 209.642 16.12C207.882 15.3733 205.882 15 203.642 15C200.655 15 198.069 15.64 195.882 16.92C193.695 18.1467 192.015 19.9333 190.842 22.28C189.669 24.5733 189.082 27.2933 189.082 30.44C189.082 32.84 189.402 35 190.042 36.92C190.735 38.84 191.722 40.4933 193.002 41.88C194.282 43.2133 195.802 44.2533 197.562 45C199.375 45.6933 201.402 46.04 203.642 46.04Z" fill="#373538"/>
</svg>
